<?xml version="1.0" encoding="UTF-8" standalone="no"?>
<!DOCTYPE svg PUBLIC "-//W3C//DTD SVG 1.0//EN" "http://www.w3.org/TR/2001/PR-SVG-20010719/DTD/svg10.dtd">
<svg width="15cm" height="15cm" viewBox="30 119 288 295" xmlns="http://www.w3.org/2000/svg" xmlns:xlink="http://www.w3.org/1999/xlink">
  <defs/>
  <g id="Hintergrund">
    <ellipse style="fill: #ffffff; fill-opacity: 1; stroke-opacity: 1; stroke-width: 2; stroke: #000000" cx="110" cy="250" rx="30" ry="30"/>
    <rect style="fill: #ffffff; fill-opacity: 1; stroke-opacity: 1; stroke-width: 2; stroke: #000000" x="220" y="160" width="20" height="60" rx="0" ry="0"/>
    <g>
      <line style="fill: none; stroke-opacity: 1; stroke-width: 2; stroke: #000000" x1="60" y1="220" x2="60" y2="275.528"/>
      <polyline style="fill: none; stroke-opacity: 1; stroke-width: 2; stroke: #000000" points="55,267.764 60,277.764 65,267.764 "/>
    </g>
    <text font-size="12.7998" style="fill: #000000; fill-opacity: 1; stroke: none;text-anchor:start;font-family:sans-serif;font-style:normal;font-weight:normal" x="30" y="260">
      <tspan x="30" y="260">U0 </tspan>
    </text>
    <polyline style="fill: none; stroke-opacity: 1; stroke-width: 2; stroke: #000000" points="230,160 230,120 110,120 110,220 "/>
    <text font-size="12.7998" style="fill: #000000; fill-opacity: 1; stroke: none;text-anchor:start;font-family:sans-serif;font-style:normal;font-weight:normal" x="190" y="190">
      <tspan x="190" y="190">R1</tspan>
    </text>
    <polyline style="fill: none; stroke-opacity: 1; stroke-width: 2; stroke: #000000" points="230,340 230,380 110,380 110,280 "/>
    <line style="fill: none; stroke-opacity: 1; stroke-width: 2; stroke: #000000" x1="170" y1="380" x2="180" y2="370"/>
    <line style="fill: none; stroke-opacity: 1; stroke-width: 2; stroke: #000000" x1="170" y1="380" x2="180" y2="390"/>
    <text font-size="12.7998" style="fill: #000000; fill-opacity: 1; stroke: none;text-anchor:start;font-family:sans-serif;font-style:normal;font-weight:normal" x="180" y="410">
      <tspan x="180" y="410">I </tspan>
    </text>
    <rect style="fill: #ffffff; fill-opacity: 1; stroke-opacity: 1; stroke-width: 2; stroke: #000000" x="220" y="280" width="20" height="60" rx="0" ry="0"/>
    <text font-size="12.7998" style="fill: #000000; fill-opacity: 1; stroke: none;text-anchor:start;font-family:sans-serif;font-style:normal;font-weight:normal" x="190" y="320">
      <tspan x="190" y="320">R2</tspan>
    </text>
    <line style="fill: none; stroke-opacity: 1; stroke-width: 2; stroke: #000000" x1="230" y1="220" x2="230" y2="280"/>
    <line style="fill: none; stroke-opacity: 1; stroke-width: 2; stroke: #000000" x1="230" y1="250" x2="280" y2="250"/>
    <line style="fill: none; stroke-opacity: 1; stroke-width: 2; stroke: #000000" x1="230" y1="380" x2="280" y2="380"/>
    <ellipse style="fill: #ffffff; fill-opacity: 1; stroke-opacity: 1; stroke-width: 2; stroke: #000000" cx="280" cy="250" rx="5" ry="5"/>
    <ellipse style="fill: #ffffff; fill-opacity: 1; stroke-opacity: 1; stroke-width: 2; stroke: #000000" cx="280" cy="380" rx="5" ry="5"/>
    <g>
      <line style="fill: none; stroke-opacity: 1; stroke-width: 2; stroke: #000000" x1="280" y1="280" x2="280" y2="355.528"/>
      <polyline style="fill: none; stroke-opacity: 1; stroke-width: 2; stroke: #000000" points="275,347.764 280,357.764 285,347.764 "/>
    </g>
    <text font-size="12.7998" style="fill: #000000; fill-opacity: 1; stroke: none;text-anchor:start;font-family:sans-serif;font-style:normal;font-weight:normal" x="300" y="330">
      <tspan x="300" y="330">U2</tspan>
    </text>
    <g>
      <line style="fill: none; stroke-opacity: 1; stroke-width: 2; stroke: #000000" x1="280" y1="140" x2="280" y2="215.528"/>
      <polyline style="fill: none; stroke-opacity: 1; stroke-width: 2; stroke: #000000" points="275,207.764 280,217.764 285,207.764 "/>
    </g>
    <text font-size="12.7998" style="fill: #000000; fill-opacity: 1; stroke: none;text-anchor:start;font-family:sans-serif;font-style:normal;font-weight:normal" x="300" y="180">
      <tspan x="300" y="180">U1</tspan>
    </text>
  </g>
</svg>
